<mxfile host="65bd71144e">
    <diagram id="UpeDOt9tmsEQG5I8E9b3" name="Page-1">
        <mxGraphModel dx="1084" dy="850" grid="1" gridSize="10" guides="1" tooltips="1" connect="1" arrows="1" fold="1" page="1" pageScale="1" pageWidth="850" pageHeight="1100" math="0" shadow="0">
            <root>
                <mxCell id="0"/>
                <mxCell id="1" parent="0"/>
                <mxCell id="7" value="Admin" style="shape=umlLifeline;perimeter=lifelinePerimeter;whiteSpace=wrap;html=1;container=1;collapsible=0;recursiveResize=0;outlineConnect=0;" parent="1" vertex="1">
                    <mxGeometry x="150" y="150" width="100" height="540" as="geometry"/>
                </mxCell>
                <mxCell id="9" value="" style="html=1;points=[];perimeter=orthogonalPerimeter;fillColor=strokeColor;" parent="7" vertex="1">
                    <mxGeometry x="48" y="90" width="5" height="350" as="geometry"/>
                </mxCell>
                <mxCell id="47" value="" style="html=1;points=[];perimeter=orthogonalPerimeter;fillColor=strokeColor;" parent="7" vertex="1">
                    <mxGeometry x="47.5" y="430" width="5" height="80" as="geometry"/>
                </mxCell>
                <mxCell id="10" value=":laporan" style="shape=umlLifeline;perimeter=lifelinePerimeter;whiteSpace=wrap;html=1;container=1;collapsible=0;recursiveResize=0;outlineConnect=0;" parent="1" vertex="1">
                    <mxGeometry x="350" y="150" width="100" height="540" as="geometry"/>
                </mxCell>
                <mxCell id="11" value="" style="html=1;points=[];perimeter=orthogonalPerimeter;fillColor=strokeColor;" parent="10" vertex="1">
                    <mxGeometry x="48" y="90" width="5" height="420" as="geometry"/>
                </mxCell>
                <mxCell id="13" value="Sistem" style="shape=umlLifeline;perimeter=lifelinePerimeter;whiteSpace=wrap;html=1;container=1;collapsible=0;recursiveResize=0;outlineConnect=0;" parent="1" vertex="1">
                    <mxGeometry x="550" y="150" width="100" height="540" as="geometry"/>
                </mxCell>
                <mxCell id="14" value="" style="html=1;points=[];perimeter=orthogonalPerimeter;fillColor=strokeColor;" parent="13" vertex="1">
                    <mxGeometry x="48" y="120" width="5" height="390" as="geometry"/>
                </mxCell>
                <mxCell id="18" value="input laporan" style="html=1;verticalAlign=bottom;endArrow=block;" parent="1" target="10" edge="1">
                    <mxGeometry x="-0.0048" width="80" relative="1" as="geometry">
                        <mxPoint x="203" y="240" as="sourcePoint"/>
                        <mxPoint x="283" y="240" as="targetPoint"/>
                        <mxPoint as="offset"/>
                    </mxGeometry>
                </mxCell>
                <mxCell id="19" value="Get()" style="html=1;verticalAlign=bottom;endArrow=block;" parent="1" edge="1">
                    <mxGeometry x="-0.0025" width="80" relative="1" as="geometry">
                        <mxPoint x="400" y="270" as="sourcePoint"/>
                        <mxPoint x="596.5" y="270" as="targetPoint"/>
                        <mxPoint as="offset"/>
                    </mxGeometry>
                </mxCell>
                <mxCell id="20" value="Database" style="shape=umlLifeline;perimeter=lifelinePerimeter;whiteSpace=wrap;html=1;container=1;collapsible=0;recursiveResize=0;outlineConnect=0;" parent="1" vertex="1">
                    <mxGeometry x="750" y="150" width="101" height="540" as="geometry"/>
                </mxCell>
                <mxCell id="21" value="" style="html=1;points=[];perimeter=orthogonalPerimeter;fillColor=strokeColor;" parent="20" vertex="1">
                    <mxGeometry x="48" y="170" width="5" height="340" as="geometry"/>
                </mxCell>
                <mxCell id="24" value="Get()" style="html=1;verticalAlign=bottom;endArrow=block;" parent="20" edge="1">
                    <mxGeometry x="-0.0048" width="80" relative="1" as="geometry">
                        <mxPoint x="-150" y="170" as="sourcePoint"/>
                        <mxPoint x="46.5" y="170" as="targetPoint"/>
                        <mxPoint as="offset"/>
                    </mxGeometry>
                </mxCell>
                <mxCell id="42" value="menampilkan laporan" style="html=1;verticalAlign=bottom;labelBackgroundColor=none;endArrow=open;endFill=0;dashed=1;" parent="20" edge="1">
                    <mxGeometry width="160" relative="1" as="geometry">
                        <mxPoint x="52.999999999999886" y="369.9999999999998" as="sourcePoint"/>
                        <mxPoint x="-146.8333333333336" y="369.9999999999998" as="targetPoint"/>
                    </mxGeometry>
                </mxCell>
                <mxCell id="27" value=":SHU" style="shape=umlLifeline;perimeter=lifelinePerimeter;whiteSpace=wrap;html=1;container=1;collapsible=0;recursiveResize=0;outlineConnect=0;" parent="1" vertex="1">
                    <mxGeometry x="960" y="150" width="100" height="540" as="geometry"/>
                </mxCell>
                <mxCell id="28" value="" style="html=1;points=[];perimeter=orthogonalPerimeter;fillColor=strokeColor;" parent="27" vertex="1">
                    <mxGeometry x="48" y="220" width="5" height="290" as="geometry"/>
                </mxCell>
                <mxCell id="37" value="calculate()" style="html=1;verticalAlign=bottom;endArrow=block;" parent="27" edge="1">
                    <mxGeometry x="-0.0025" width="80" relative="1" as="geometry">
                        <mxPoint x="-160" y="220" as="sourcePoint"/>
                        <mxPoint x="36.5" y="220" as="targetPoint"/>
                        <mxPoint as="offset"/>
                    </mxGeometry>
                </mxCell>
                <mxCell id="41" value="menampilkan laporan" style="html=1;verticalAlign=bottom;labelBackgroundColor=none;endArrow=open;endFill=0;dashed=1;" parent="1" edge="1">
                    <mxGeometry width="160" relative="1" as="geometry">
                        <mxPoint x="1009.8299999999999" y="489.9999999999998" as="sourcePoint"/>
                        <mxPoint x="809.9966666666664" y="489.9999999999998" as="targetPoint"/>
                    </mxGeometry>
                </mxCell>
                <mxCell id="43" value="menampilkan laporan" style="html=1;verticalAlign=bottom;labelBackgroundColor=none;endArrow=open;endFill=0;dashed=1;" parent="1" edge="1">
                    <mxGeometry width="160" relative="1" as="geometry">
                        <mxPoint x="599.83" y="548.9999999999998" as="sourcePoint"/>
                        <mxPoint x="399.99666666666656" y="548.9999999999998" as="targetPoint"/>
                    </mxGeometry>
                </mxCell>
                <mxCell id="44" value="menampilkan laporan" style="html=1;verticalAlign=bottom;labelBackgroundColor=none;endArrow=open;endFill=0;dashed=1;" parent="1" edge="1">
                    <mxGeometry width="160" relative="1" as="geometry">
                        <mxPoint x="399.83" y="579.9999999999998" as="sourcePoint"/>
                        <mxPoint x="199.9966666666665" y="579.9999999999998" as="targetPoint"/>
                    </mxGeometry>
                </mxCell>
            </root>
        </mxGraphModel>
    </diagram>
</mxfile>